# xmcd
#
# Track frame offsets:
#	150
#	14273
#	31028
#	47039
#	63838
#	76821
#	95535
#	112038
#	126799
#	141336
#	156836
#	169093
#	184079
#	199188
#	217154
#	237438
#	252049
#	267767
#	285901
#	310131
#
# Disc length: 4430 seconds
#
# Revision: 0
# Processed by: cddbd v1.5.2PL0 Copyright (c) Steve Scherf et al.
# Submitted via: EZCDAudioConverter 2.1.5.1
#
DISCID=13114c14
DTITLE=Various Artist - Intiaanikesä Vol3 cd1
DYEAR=2011
DGENRE=
TTITLE0=Jare and VilleGalle feat. Märkä-Simo - Häissä
TTITLE1=Inna - Sun Is Up (Play&Win Radio Edit)
TTITLE2=Shakira - La Tortura
TTITLE3=Los Del Rio - Macarena
TTITLE4=Spice Girls - Wannabe
TTITLE5=Kaija Koo - Vapaa
TTITLE6=Katrina and the Waves - Walking On Sunshine
TTITLE7=Safri Duo - Played -A- Live
TTITLE8=Captain Jack - Captain Jack
TTITLE9=Spankers - Sex on the Beach
TTITLE10=Stars On 45 - 45
TTITLE11=Bob Sinclar feat. Steve Edwards - World Hold On (Children of the Sky)
TTITLE12=David Tavare - Summer Love
TTITLE13=Hanson - MMMBop
TTITLE14=Vanilla Ice - Ice Ice Baby
TTITLE15=Basic Element - Touch You Right Now
TTITLE16=ATB - Let U Go
TTITLE17=Gigi' D Agostino - L'Amour Toujours
TTITLE18=Maxi Priest - Close To You
TTITLE19=Toto - Africa
EXTD=
EXTT0=
EXTT1=
EXTT2=
EXTT3=
EXTT4=
EXTT5=
EXTT6=
EXTT7=
EXTT8=
EXTT9=
EXTT10=
EXTT11=
EXTT12=
EXTT13=
EXTT14=
EXTT15=
EXTT16=
EXTT17=
EXTT18=
EXTT19=
PLAYORDER=
